# xmcd
# 
# Track frame offsets:
#     300
#     21142
#     41997
#     59528
#     73131
#     92310
#     109230
#     126799
#     144829
#     162731
#     182354
# 
# Disc length: 2726
# 
# Revision: 2
# Processed by: cddbd v1.5.2PL0 Copyright (c) Steve Scherf et al.
# Submitted via: BonkEnc v1.0.8
# 
DISCID=9a0aa20b
DTITLE=Nachtmahr - Feuer Frei!
DYEAR=2008
DGENRE=Industrial
TTITLE0=Nachtmahr
TTITLE1=Feuer Frei
TTITLE2=Leistung
TTITLE3=Opferzeit
TTITLE4=Karussell
TTITLE5=Mein Name
TTITLE6=Endzeitstimmung
TTITLE7=Hochmut
TTITLE8=Ich Glaube
TTITLE9=Deus Ex Machina
TTITLE10=Katharsis
EXTD=
EXTT0=
EXTT1=
EXTT2=
EXTT3=
EXTT4=
EXTT5=
EXTT6=
EXTT7=
EXTT8=
EXTT9=
EXTT10=
PLAYORDER=
